<svg id="Livello_1" data-name="Livello 1" xmlns="http://www.w3.org/2000/svg" viewBox="0 0 407 234.5"><defs><style>.cls-1{fill:#333;stroke:#4d4d4d;}.cls-1,.cls-2{stroke-miterlimit:10;}.cls-2{fill:none;stroke:#333;stroke-width:2px;}</style></defs><title>gate</title><path class="cls-1" d="M77.5,191.46c0-17.66-6.27-32-14-32s-14,14.3-14,32h0V354.53a8,8,0,0,0,8,8H69.53a8,8,0,0,0,8-8V191.47Z" transform="translate(-49 -128.5)"/><path class="cls-1" d="M455.5,191.46c0-17.66-6.27-32-14-32s-14,14.3-14,32h0V354.53a8,8,0,0,0,8,8h12.06a8,8,0,0,0,8-8V191.47Z" transform="translate(-49 -128.5)"/><path class="cls-1" d="M94.08,209.45c0-14.61-.76-26.45-1.71-26.45s-1.7,11.84-1.7,26.45v1.22h0V358h3.41V210.67h0Z" transform="translate(-49 -128.5)"/><path class="cls-1" d="M117,209.45c0-14.61-.77-26.45-1.71-26.45s-1.71,11.84-1.71,26.45c0,.41,0,.82,0,1.22h0V358H117V210.67h0C117,210.27,117,209.86,117,209.45Z" transform="translate(-49 -128.5)"/><path class="cls-1" d="M139.83,209.45c0-14.61-.76-26.45-1.71-26.45s-1.7,11.84-1.7,26.45v1.22h0V358h3.41V210.67h0Z" transform="translate(-49 -128.5)"/><path class="cls-1" d="M162.71,206.91c0-14.86-.77-26.91-1.71-26.91s-1.71,12.05-1.71,26.91c0,.41,0,.83,0,1.24h0V358h3.42V208.15h0C162.7,207.74,162.71,207.32,162.71,206.91Z" transform="translate(-49 -128.5)"/><path class="cls-1" d="M185.58,201.81c0-15.36-.76-27.81-1.71-27.81s-1.7,12.45-1.7,27.81v1.29h0V358h3.41V203.1h0Z" transform="translate(-49 -128.5)"/><path class="cls-1" d="M208.46,192.9c0-16.24-.77-29.4-1.71-29.4S205,176.66,205,192.9c0,.46,0,.91,0,1.36h0V358h3.42V194.26h0C208.45,193.81,208.46,193.36,208.46,192.9Z" transform="translate(-49 -128.5)"/><path class="cls-1" d="M231.33,179.74c0-17.53-.76-31.74-1.71-31.74s-1.7,14.21-1.7,31.74v1.47h0V358h3.41V181.21h0Z" transform="translate(-49 -128.5)"/><path class="cls-1" d="M255,163.62c0-19.12-.67-34.62-1.5-34.62s-1.5,15.5-1.5,34.62v1.59h0V358h3V165.21h0Z" transform="translate(-49 -128.5)"/><path class="cls-1" d="M277.08,179.74c0-17.53-.76-31.74-1.7-31.74s-1.71,14.21-1.71,31.74v1.47h0V358h3.41V181.21h0Z" transform="translate(-49 -128.5)"/><path class="cls-1" d="M300,192.9c0-16.24-.77-29.4-1.71-29.4s-1.71,13.16-1.71,29.4c0,.46,0,.91,0,1.36h0V358H300V194.26h0C300,193.81,300,193.36,300,192.9Z" transform="translate(-49 -128.5)"/><path class="cls-1" d="M322.83,201.81c0-15.36-.76-27.81-1.71-27.81s-1.7,12.45-1.7,27.81v1.29h0V358h3.41V203.1h0Z" transform="translate(-49 -128.5)"/><path class="cls-1" d="M345.71,206.91c0-14.86-.77-26.91-1.71-26.91s-1.71,12.05-1.71,26.91c0,.41,0,.83,0,1.24h0V358h3.42V208.15h0C345.7,207.74,345.71,207.32,345.71,206.91Z" transform="translate(-49 -128.5)"/><path class="cls-1" d="M368.58,209.45c0-14.61-.76-26.45-1.7-26.45s-1.71,11.84-1.71,26.45v1.22h0V358h3.41V210.67h0Z" transform="translate(-49 -128.5)"/><path class="cls-1" d="M391.46,209.45c0-14.61-.77-26.45-1.71-26.45S388,194.84,388,209.45c0,.41,0,.82,0,1.22h0V358h3.42V210.67h0C391.45,210.27,391.46,209.86,391.46,209.45Z" transform="translate(-49 -128.5)"/><path class="cls-1" d="M414.33,209.45c0-14.61-.76-26.45-1.71-26.45s-1.7,11.84-1.7,26.45v1.22h0V358h3.41V210.67h0Z" transform="translate(-49 -128.5)"/><path class="cls-2" d="M63.5,189.5s151,20,190-47c37,66,188,50,188,50" transform="translate(-49 -128.5)"/><polygon class="cls-2" points="15 229.5 179 229.5 393 229.5 393 187.5 14 187.5 15 229.5"/></svg>